<svg width="749" height="240" viewBox="0 0 749 240" fill="none" xmlns="http://www.w3.org/2000/svg">
<path d="M80.0006 240H24.1427C15.2337 240 10.772 229.229 17.0717 222.929L80.0006 160V104.142C80.0006 95.233 90.772 90.7713 97.0717 97.071L154.143 154.142C157.893 157.893 160.001 162.98 160.001 168.284V180C160.001 213.137 133.138 240 100.001 240H80.0006Z" fill="url(#paint0_linear_135_263)"/>
<path d="M135.858 0H20C8.95431 0 0 8.95431 0 20V135.858C0 144.767 10.7714 149.229 17.071 142.929L142.929 17.0711C149.229 10.7714 144.767 0 135.858 0Z" fill="#60A5FA"/>
<path d="M742.048 67.0967H679.887L678.382 99.9999C680.819 99.283 683.687 98.7812 686.985 98.4945C690.427 98.2078 693.51 98.0644 696.234 98.0644C703.691 98.0644 710.574 99.1397 716.883 101.29C723.336 103.441 728.928 106.595 733.66 110.753C738.392 114.767 742.048 119.785 744.63 125.806C747.354 131.684 748.716 138.495 748.716 146.236C748.716 154.695 747.211 162.294 744.199 169.032C741.331 175.627 737.388 181.219 732.369 185.806C727.351 190.394 721.471 193.907 714.732 196.344C707.992 198.781 700.823 200 693.223 200C680.461 200 669.706 197.061 660.959 191.183C652.212 185.161 645.831 176.989 641.816 166.667L665.261 158.064C667.412 164.086 670.997 168.96 676.016 172.688C681.034 176.272 686.985 178.064 693.868 178.064C697.74 178.064 701.396 177.419 704.838 176.129C708.279 174.839 711.29 172.975 713.872 170.538C716.453 168.1 718.46 165.089 719.894 161.505C721.471 157.778 722.26 153.62 722.26 149.032C722.26 143.154 721.256 138.279 719.249 134.408C717.241 130.538 714.589 127.455 711.291 125.161C708.136 122.724 704.551 121.075 700.536 120.215C696.521 119.211 692.434 118.71 688.276 118.71C685.408 118.71 682.325 118.925 679.027 119.355C675.872 119.785 672.718 120.43 669.563 121.29C666.552 122.007 663.54 122.867 660.529 123.871C657.661 124.874 655.08 125.95 652.786 127.097L655.367 43.8708H742.048V67.0967Z" fill="#374151"/>
<path d="M527.777 92.9033H552.293V109.462H552.723C555.017 104.301 558.96 99.7851 564.551 95.9141C570.286 91.8997 577.025 89.8926 584.766 89.8926C591.505 89.8926 597.24 91.1112 601.971 93.5485C606.845 95.8424 610.788 98.9248 613.799 102.796C616.953 106.667 619.247 111.111 620.68 116.129C622.114 121.147 622.831 126.308 622.831 131.613V196.129H597.025V138.925C597.025 135.914 596.809 132.76 596.379 129.462C595.949 126.165 595.017 123.226 593.584 120.645C592.15 117.921 590.143 115.699 587.562 113.979C585.125 112.258 581.827 111.398 577.67 111.398C573.512 111.398 569.928 112.258 566.917 113.979C563.906 115.556 561.397 117.635 559.39 120.215C557.526 122.796 556.093 125.807 555.089 129.247C554.085 132.545 553.584 135.914 553.584 139.355V196.129H527.777V92.9033Z" fill="#374151"/>
<path d="M481.008 134.194C481.008 130.896 480.507 127.742 479.503 124.731C478.643 121.721 477.209 119.068 475.202 116.774C473.195 114.48 470.614 112.688 467.46 111.398C464.449 109.964 460.865 109.247 456.707 109.247C448.965 109.247 442.37 111.613 436.922 116.344C431.618 120.932 428.679 126.882 428.105 134.194H481.008ZM506.815 145.807C506.815 146.953 506.815 148.1 506.815 149.247C506.815 150.394 506.743 151.541 506.6 152.688H428.105C428.392 156.416 429.324 159.857 430.901 163.011C432.621 166.022 434.843 168.674 437.568 170.968C440.292 173.118 443.374 174.839 446.815 176.129C450.256 177.419 453.84 178.065 457.568 178.065C464.019 178.065 469.467 176.918 473.912 174.624C478.356 172.186 482.012 168.889 484.879 164.731L502.084 178.495C491.904 192.258 477.137 199.14 457.783 199.14C449.754 199.14 442.37 197.921 435.632 195.484C428.894 192.903 423.016 189.319 417.998 184.731C413.123 180.143 409.252 174.552 406.385 167.957C403.661 161.219 402.299 153.62 402.299 145.161C402.299 136.846 403.661 129.319 406.385 122.581C409.252 115.699 413.123 109.893 417.998 105.161C422.872 100.287 428.607 96.5592 435.202 93.9786C441.94 91.2546 449.18 89.8926 456.922 89.8926C464.091 89.8926 470.686 91.1112 476.707 93.5485C482.872 95.8424 488.177 99.3549 492.621 104.086C497.066 108.674 500.507 114.48 502.944 121.505C505.524 128.387 506.815 136.488 506.815 145.807Z" fill="#374151"/>
<path d="M380.646 188.172C372.904 191.9 364.373 194.767 355.054 196.774C345.879 198.925 335.269 200 323.226 200C310.897 200 299.642 198.065 289.463 194.194C279.284 190.179 270.538 184.659 263.226 177.634C255.915 170.466 250.18 162.007 246.022 152.258C242.008 142.366 240.001 131.47 240.001 119.57C240.001 107.384 242.079 96.4158 246.237 86.6667C250.538 76.7742 256.345 68.3871 263.657 61.5054C271.112 54.6237 279.857 49.319 289.893 45.5914C299.929 41.8638 310.825 40 322.581 40C334.768 40 345.879 41.7921 355.915 45.3763C366.094 48.8172 374.266 53.405 380.431 59.1398L361.721 79.3548C357.85 75.0538 352.402 71.3978 345.377 68.3871C338.495 65.3763 330.968 63.871 322.796 63.871C314.768 63.871 307.456 65.3047 300.861 68.172C294.409 71.0394 288.889 74.9821 284.302 80C279.714 85.0179 276.13 90.8961 273.549 97.6344C271.112 104.373 269.893 111.685 269.893 119.57C269.893 127.742 271.112 135.269 273.549 142.151C276.13 148.889 279.714 154.767 284.302 159.785C289.033 164.803 294.696 168.746 301.291 171.613C308.029 174.337 315.628 175.699 324.087 175.699C335.7 175.699 345.807 173.907 354.409 170.323V131.613H322.366V109.247H380.646V188.172Z" fill="#374151"/>
<defs>
<linearGradient id="paint0_linear_135_263" x1="0.000606207" y1="80" x2="160.001" y2="240" gradientUnits="userSpaceOnUse">
<stop stop-color="#1D4ED8"/>
<stop offset="0.895" stop-color="#60A5FA"/>
</linearGradient>
</defs>
</svg>
